# xmcd CD database file
#
# Track frame offsets:
#	180
#	17385
#	35730
#	46784
#	62689
#	80616
#	95721
#	115079
#	137498
#	156782
#	174702
#	185091
#	201745
#	215722
#
# Disc length: 3067 seconds
#
# Revision: 0
# Processed by: cddbd v1.4PL0 Copyright (c) Steve Scherf et al.
# Submitted via: CDex 1.40Beta9
#
DISCID=ca0bf90e
DTITLE=Machu Picchu - The Best Of
DYEAR=1900
DGENRE=Native American
TTITLE0=Moliendo cafe
TTITLE1=Tabaco y ron
TTITLE2=El gavilan
TTITLE3=Baila cholita
TTITLE4=Lambada (Llorando se fue)
TTITLE5=Palo palito
TTITLE6=Coplas de morenada
TTITLE7=Medley
TTITLE8=La colegiala
TTITLE9=El negro Jose
TTITLE10=Bamboleo (Caballo Viejo)
TTITLE11=Rosenda
TTITLE12=El condor pasa
TTITLE13=Gacias a la vida
EXTD=ID3G: 64
EXTT0=
EXTT1=
EXTT2=
EXTT3=
EXTT4=
EXTT5=
EXTT6=
EXTT7=
EXTT8=
EXTT9=
EXTT10=
EXTT11=
EXTT12=
EXTT13=
PLAYORDER=
